<svg xmlns="http://www.w3.org/2000/svg" width="31.5" height="34.875" viewBox="0 0 31.5 34.875">
  <g id="bag" transform="translate(-2.25 -1.125)">
    <path id="Path_12358" data-name="Path 12358" d="M31.5,11.25H4.5V31.5a2.25,2.25,0,0,0,2.25,2.25h22.5A2.25,2.25,0,0,0,31.5,31.5ZM2.25,9V31.5A4.5,4.5,0,0,0,6.75,36h22.5a4.5,4.5,0,0,0,4.5-4.5V9Z" fill-rule="evenodd"/>
    <path id="Path_12359" data-name="Path 12359" d="M18,3.375A5.625,5.625,0,0,0,12.375,9h-2.25a7.875,7.875,0,1,1,15.75,0h-2.25A5.625,5.625,0,0,0,18,3.375Z"/>
  </g>
</svg>
