<svg xmlns="http://www.w3.org/2000/svg" width="31.506" height="28.125" viewBox="0 0 31.506 28.125">
  <path id="favorite" d="M25.256,6.75a6.154,6.154,0,0,1,4.4,1.845,6.413,6.413,0,0,1,0,9L18,29.4,6.345,17.595a6.413,6.413,0,0,1,0-9,6.165,6.165,0,0,1,8.8,0L18,11.52l2.846-2.9A6.12,6.12,0,0,1,25.256,6.75m0-2.25a8.4,8.4,0,0,0-6.008,2.52L18,8.28,16.751,7.02a8.426,8.426,0,0,0-12.015,0,8.685,8.685,0,0,0,0,12.172L18,32.625,31.264,19.193a8.685,8.685,0,0,0,0-12.172A8.426,8.426,0,0,0,25.256,4.5Z" transform="translate(-2.247 -4.5)"/>
</svg>
