<svg xmlns="http://www.w3.org/2000/svg" width="29.255" height="32.625" viewBox="0 0 29.255 32.625">
    <path id="notification"
        d="M32.288,22.838,29.25,19.8V14.625A11.329,11.329,0,0,0,19.125,3.375V1.125h-2.25v2.25A11.419,11.419,0,0,0,6.75,14.625V19.8L3.712,22.838a1.024,1.024,0,0,0-.337.787V27A1.057,1.057,0,0,0,4.5,28.125h7.875a5.625,5.625,0,0,0,11.25,0H31.5A1.057,1.057,0,0,0,32.625,27V23.625A1.024,1.024,0,0,0,32.288,22.838ZM18,31.5a3.375,3.375,0,0,1-3.375-3.375h6.75A3.375,3.375,0,0,1,18,31.5Zm12.375-5.625H5.625v-1.8l3.038-3.038A1.024,1.024,0,0,0,9,20.25V14.625a9,9,0,1,1,18,0V20.25a1.024,1.024,0,0,0,.337.787l3.038,3.038Z"
        transform="translate(-3.373 -1.125)" />
</svg>
