<svg xmlns="http://www.w3.org/2000/svg" width="30.62" height="29.425" viewBox="0 0 30.62 29.425">
  <g id="shopping-cart-line" transform="translate(-2.7 -2.575)">
    <path id="Path_12355" data-name="Path 12355" d="M15.58,29.75a2.25,2.25,0,1,1-2.25-2.25,2.25,2.25,0,0,1,2.25,2.25Z"/>
    <path id="Path_12356" data-name="Path 12356" d="M29.25,29.75A2.25,2.25,0,1,1,27,27.5,2.25,2.25,0,0,1,29.25,29.75Z"/>
    <path id="Path_12357" data-name="Path 12357" d="M33.08,5.37A1,1,0,0,0,32.31,5H11.49l.65,2H31L28.33,19h-15L8.76,4.53a1,1,0,0,0-.66-.65L4,2.62a1,1,0,1,0-.59,1.92L7,5.64l4.59,14.5L9.95,21.48l-.13.13A2.66,2.66,0,0,0,9.74,25,2.75,2.75,0,0,0,12,26H28.69a1,1,0,0,0,0-2H11.84a.67.67,0,0,1-.56-1l2.41-2H29.13a1,1,0,0,0,1-.78l3.17-14a1,1,0,0,0-.22-.85Z"/>
  </g>
</svg>
